<?xml version="1.0" encoding="UTF-8"?>
<svg width="311px" height="112px" viewBox="0 0 311 112" version="1.1" xmlns="http://www.w3.org/2000/svg" xmlns:xlink="http://www.w3.org/1999/xlink">
    <!-- Generator: Sketch 51.1 (57501) - http://www.bohemiancoding.com/sketch -->
    <title>Group</title>
    <desc>Created with Sketch.</desc>
    <defs></defs>
    <g id="Page-1" stroke="none" stroke-width="1" fill="none" fill-rule="evenodd">
        <g id="Group" fill-rule="nonzero">
            <path d="M111.6,44.53 L101.84,44.53 L101.84,26.53 C101.958367,24.9253837 101.528205,23.3281444 100.62,22 C99.7929958,21.0163652 98.5535106,20.4761716 97.27,20.54 C96.6279841,20.5538694 95.994038,20.6860827 95.4,20.93 C94.6781434,21.2125461 94.0036946,21.6037264 93.4,22.09 C92.7511871,22.6194367 92.1671452,23.2236179 91.66,23.89 C91.1328726,24.5937408 90.7210593,25.3768613 90.44,26.21 L90.44,44.53 L80.73,44.53 L80.73,0 L90.49,0 L90.49,17.87 C91.6245596,16.0064992 93.2369563,14.4804192 95.16,13.45 C97.119513,12.4066915 99.3102052,11.8736345 101.53,11.9 C103.335574,11.8125279 105.133263,12.1913513 106.75,13 C107.975161,13.6895361 109.0069,14.6765665 109.75,15.87 C110.474765,17.0651109 110.960429,18.3896514 111.18,19.77 C111.440366,21.1654435 111.580879,22.580603 111.6,24 L111.6,44.53 Z" id="Shape" fill="#0066A1"></path>
            <path d="M130.27,45.14 C127.781776,45.1799431 125.310471,44.7244342 123,43.8 C120.969559,42.9741568 119.131267,41.7384157 117.6,40.17 C116.136828,38.6476936 115.003231,36.8400656 114.27,34.86 C112.763274,30.7848114 112.763274,26.3051886 114.27,22.23 C115.003162,20.2528591 116.136851,18.4484885 117.6,16.93 C119.129554,15.352107 120.967754,14.1062157 123,13.27 C125.310433,12.3185629 127.79179,11.8522447 130.29,11.9 C132.77534,11.851151 135.243858,12.3176159 137.54,13.27 C139.560442,14.1118052 141.387754,15.3572354 142.91,16.93 C144.375472,18.4523808 145.518327,20.2550976 146.27,22.23 C147.041872,24.2474505 147.435113,26.3899383 147.43,28.55 C147.435439,30.7041362 147.052656,32.8416241 146.3,34.86 C145.579561,36.8394141 144.455826,38.6476057 143,40.17 C141.470556,41.7359595 139.636058,42.9714374 137.61,43.8 C135.277132,44.7315286 132.781533,45.1871284 130.27,45.14 Z M123.13,28.55 C123.019259,30.7515588 123.732246,32.9154744 125.13,34.62 C126.408344,36.1163148 128.292546,36.957411 130.26,36.91 C131.22829,36.9184968 132.185811,36.7064744 133.06,36.29 C133.91652,35.8896045 134.677015,35.309855 135.29,34.59 C135.95117,33.8060615 136.45686,32.9032861 136.78,31.93 C137.15749,30.8436355 137.343584,29.7000008 137.33,28.55 C137.44171,26.3483107 136.728611,24.1840546 135.33,22.48 C134.076084,20.9911986 132.21607,20.1494138 130.27,20.19 C128.3107,20.1717309 126.443663,21.0210499 125.17,22.51 C124.510926,23.2916494 124.005401,24.1907381 123.68,25.16 C123.302547,26.2498281 123.11647,27.3967382 123.13,28.55 Z" id="Shape" fill="#0066A1"></path>
            <path d="M199.8,44.53 L190,44.53 L190,26.53 C190.136847,24.9084557 189.732432,23.2872774 188.85,21.92 C188.135482,20.9919245 187.020896,20.4606387 185.85,20.49 C185.162086,20.4960652 184.482242,20.6388325 183.85,20.91 C183.169643,21.2033137 182.541459,21.6052161 181.99,22.1 C181.401974,22.6346543 180.881453,23.2391301 180.44,23.9 C179.964999,24.6000185 179.585014,25.3599881 179.31,26.16 L179.31,44.53 L169.55,44.53 L169.55,26.53 C169.683892,24.9073265 169.275937,23.2860569 168.39,21.92 C167.677593,20.9893165 166.561593,20.4573566 165.39,20.49 C163.974811,20.5311318 162.62198,21.0814965 161.58,22.04 C160.303726,23.1280987 159.36373,24.55717 158.87,26.16 L158.87,44.53 L149.1,44.53 L149.1,12.53 L158,12.53 L158,17.9 C159.137411,15.9884355 160.800013,14.4438478 162.79,13.45 C164.971055,12.3990958 167.369519,11.8782866 169.79,11.93 C170.977722,11.9085464 172.161646,12.0704505 173.3,12.41 C174.234914,12.7068176 175.111243,13.1635913 175.89,13.76 C176.601705,14.3081617 177.202421,14.9869371 177.66,15.76 C178.113968,16.5077968 178.451181,17.3204815 178.66,18.17 C179.821062,16.2264036 181.486644,14.6333882 183.48,13.56 C185.58446,12.4559291 187.933989,11.9020869 190.31,11.95 C192.004835,11.8529846 193.694389,12.2157724 195.2,13 C196.406354,13.7367426 197.404562,14.769372 198.1,16 C198.798074,17.2165437 199.262712,18.5528025 199.47,19.94 C199.682075,21.2830932 199.792389,22.6402879 199.8,24 L199.8,44.53 Z" id="Shape" fill="#0066A1"></path>
            <path d="M218.47,45.14 C215.997719,45.1779324 213.541804,44.7329463 211.24,43.83 C209.204851,43.0239668 207.356739,41.8089096 205.81,40.26 C204.331003,38.7598359 203.179989,36.9686139 202.43,35 C201.652843,33.0293151 201.259126,30.9283611 201.27,28.81 C201.252822,26.5740971 201.645997,24.3540143 202.43,22.26 C203.169429,20.2516981 204.309144,18.4145463 205.78,16.86 C207.30273,15.2739978 209.142749,14.0268737 211.18,13.2 C213.495871,12.2700871 215.974821,11.8144228 218.47,11.86 C220.955609,11.8124362 223.425147,12.2682463 225.73,13.2 C227.749991,14.0289433 229.577871,15.2645494 231.1,16.83 C232.555185,18.3413215 233.68511,20.1349064 234.42,22.1 C235.174329,24.1109742 235.557207,26.2422158 235.55,28.39 C235.55,28.96 235.55,29.51 235.49,30.06 C235.458486,30.5431331 235.398381,31.0239753 235.31,31.5 L211.64,31.5 C211.666199,33.4154333 212.528331,35.2237199 214,36.45 C215.35257,37.5491064 217.047277,38.139954 218.79,38.12 C220.221118,38.1274001 221.632254,37.7840579 222.9,37.12 C224.107938,36.5504095 225.057465,35.5473381 225.56,34.31 L233.85,36.63 C232.529655,39.1930896 230.498606,41.3213514 228,42.76 C225.102277,44.4137075 221.804982,45.2371662 218.47,45.14 Z M225.24,25.5 C225.137885,23.6761363 224.356601,21.9565973 223.05,20.68 C221.77606,19.4964925 220.088159,18.8608359 218.35,18.91 C216.595474,18.8497875 214.890605,19.4985749 213.62,20.71 C212.342908,21.9918678 211.575253,23.6942132 211.46,25.5 L225.24,25.5 Z" id="Shape" fill="#0066A1"></path>
            <path d="M82.81,97.53 L82.81,75.53 L78.72,75.53 L78.72,68.13 L82.81,68.13 L82.81,65.5 C82.7853738,63.6629452 83.0520137,61.8335928 83.6,60.08 C84.0690879,58.5598142 84.8374926,57.1488056 85.86,55.93 C86.8232641,54.7965343 88.0345461,53.9000488 89.4,53.31 C90.8509254,52.6811814 92.4188309,52.3676003 94,52.39 C96.8853048,52.4522603 99.7285107,53.0950425 102.36,54.28 L100.59,61.6 C99.8899412,61.2998732 99.1634771,61.06553 98.42,60.9 C97.6927145,60.724404 96.9481097,60.6304899 96.2,60.62 C93.8,60.62 92.6,62.1266667 92.6,65.14 L92.6,68.14 L100,68.14 L100,75.52 L92.57,75.52 L92.57,97.52 L82.81,97.53 Z" id="Shape" fill="#0066A1"></path>
            <path d="M117.88,98.14 C115.385242,98.1804677 112.907294,97.7249876 110.59,96.8 C108.563942,95.9714374 106.729444,94.7359595 105.2,93.17 C103.73339,91.6503811 102.599314,89.8419909 101.87,87.86 C100.363274,83.7848114 100.363274,79.3051886 101.87,75.23 C102.599495,73.2510536 103.733633,71.4459686 105.2,69.93 C106.727916,68.3547697 108.562276,67.1091747 110.59,66.27 C112.901,65.3204769 115.381957,64.854234 117.88,64.9 C120.368696,64.849765 122.84076,65.3162566 125.14,66.27 C127.160442,67.1118052 128.987754,68.3572354 130.51,69.93 C131.972031,71.4550805 133.114417,73.2570586 133.87,75.23 C134.631855,77.2493228 135.014922,79.3917914 135,81.55 C135.008638,83.7035262 134.629246,85.8409952 133.88,87.86 C133.146769,89.8400656 132.013172,91.6476936 130.55,93.17 C129.018733,94.7384157 127.180441,95.9741568 125.15,96.8 C122.839529,97.7244342 120.368224,98.1799431 117.88,98.14 Z M110.75,81.55 C110.639259,83.7515588 111.352246,85.9154744 112.75,87.62 C114.026113,89.113564 115.906017,89.9543807 117.87,89.91 C118.841586,89.9193161 119.80254,89.7072907 120.68,89.29 C121.533367,88.8844143 122.292845,88.3054397 122.91,87.59 C123.567615,86.8036055 124.072909,85.9015376 124.4,84.93 C124.77749,83.8436355 124.963584,82.7000008 124.95,81.55 C125.06171,79.3483107 124.348611,77.1840546 122.95,75.48 C121.692081,73.9908004 119.828953,73.1492694 117.88,73.19 C115.924186,73.1746922 114.061406,74.0237392 112.79,75.51 C112.130926,76.2916494 111.625401,77.1907381 111.3,78.16 C110.922547,79.2498281 110.73647,80.3967382 110.75,81.55 Z" id="Shape" fill="#0066A1"></path>
            <path d="M157.72,73.86 C155.533203,73.8632956 153.36384,74.2491106 151.31,75 C149.584177,75.582414 148.116197,76.7497235 147.16,78.3 L147.16,97.53 L137.4,97.53 L137.4,65.53 L146.4,65.53 L146.4,72 C147.377692,69.9915991 148.833666,68.2540445 150.64,66.94 C152.230287,65.7503707 154.145357,65.0736428 156.13,65 L157.13,65 C157.334776,65.0006183 157.539028,65.0207087 157.74,65.06 L157.72,73.86 Z" id="Shape" fill="#0066A1"></path>
            <path d="M181.5,97.65 C179.49694,97.6772612 177.514903,97.2390907 175.71,96.37 C173.987371,95.5398694 172.460431,94.353764 171.23,92.89 C169.958141,91.3751918 168.975183,89.6397613 168.33,87.77 C167.640955,85.7490162 167.302743,83.6250446 167.33,81.49 C167.309953,79.2558105 167.68227,77.0354463 168.43,74.93 C169.111676,73.005713 170.146001,71.2253183 171.48,69.68 C174.190147,66.5946735 178.113727,64.8484243 182.22,64.9 C184.443161,64.8431518 186.641502,65.3780701 188.59,66.45 C190.390751,67.4821489 191.892999,68.9637233 192.95,70.75 L192.95,65.5 L201.43,65.5 L201.43,95.33 C201.464512,97.6007814 200.996687,99.8511219 200.06,101.92 C199.171742,103.845725 197.871053,105.552666 196.25,106.92 C194.519572,108.340302 192.529228,109.410197 190.39,110.07 C187.961706,110.820307 185.431414,111.188042 182.89,111.16 C179.857591,111.240547 176.842196,110.681762 174.04,109.52 C171.590452,108.409886 169.407901,106.786614 167.64,104.76 L172.88,99.45 C174.098561,100.817334 175.595338,101.908379 177.27,102.65 C179.034681,103.450103 180.952475,103.856184 182.89,103.84 C184.024228,103.846081 185.153115,103.68433 186.24,103.36 C187.265018,103.046813 188.219383,102.537365 189.05,101.86 C189.889372,101.151897 190.54761,100.253678 190.97,99.24 C191.467037,98.0083829 191.705312,96.6876595 191.67,95.36 L191.67,92.22 C190.728546,93.9823928 189.255374,95.4030765 187.46,96.28 C185.609112,97.2001212 183.566888,97.6695587 181.5,97.65 Z M184.86,89.91 C186.292884,89.9225952 187.693022,89.4815517 188.86,88.65 C190.025363,87.8279311 190.96715,86.7280335 191.6,85.45 L191.6,78.74 C191.009321,77.1438116 189.966951,75.7539848 188.6,74.74 C187.382028,73.7809767 185.880162,73.2533892 184.33,73.24 C183.320533,73.2317846 182.324565,73.4721908 181.43,73.94 C180.55933,74.410514 179.793736,75.0536122 179.18,75.83 C178.534919,76.6549313 178.037571,77.5853451 177.71,78.58 C177.367343,79.6121641 177.191797,80.6924462 177.19,81.78 C177.181797,82.8962921 177.378382,84.0046244 177.77,85.05 C178.138618,86.0093789 178.688645,86.8887422 179.39,87.64 C180.798271,89.1352929 182.766011,89.9760215 184.82,89.96 L184.86,89.91 Z" id="Shape" fill="#0066A1"></path>
            <path d="M220.36,98.14 C217.865242,98.1804677 215.387294,97.7249876 213.07,96.8 C211.042236,95.9691353 209.204906,94.7340414 207.67,93.17 C206.20974,91.6473073 205.079493,89.839594 204.35,87.86 C202.843274,83.7848114 202.843274,79.3051886 204.35,75.23 C205.079682,73.2534584 206.209989,71.4490526 207.67,69.93 C209.20338,68.356672 211.040577,67.1114611 213.07,66.27 C215.381,65.3204769 217.861957,64.854234 220.36,64.9 C222.848696,64.849765 225.32076,65.3162566 227.62,66.27 C229.644016,67.110616 231.474827,68.3561123 233,69.93 C234.462535,71.4527706 235.602038,73.2555656 236.35,75.23 C237.126572,77.2461293 237.519976,79.3895043 237.51,81.55 C237.518638,83.7035262 237.139246,85.8409952 236.39,87.86 C235.653186,89.8382999 234.520022,91.645237 233.06,93.17 C231.528733,94.7384157 229.690441,95.9741568 227.66,96.8 C225.340187,97.7283592 222.85829,98.1839403 220.36,98.14 Z M213.23,81.55 C213.119259,83.7515588 213.832246,85.9154744 215.23,87.62 C216.506113,89.113564 218.386017,89.9543807 220.35,89.91 C221.321477,89.9182694 222.282199,89.7062951 223.16,89.29 C224.013367,88.8844143 224.772845,88.3054397 225.39,87.59 C226.044027,86.8011378 226.54893,85.8997669 226.88,84.93 C227.25749,83.8436355 227.443584,82.7000008 227.43,81.55 C227.54171,79.3483107 226.828611,77.1840546 225.43,75.48 C224.172081,73.9908004 222.308953,73.1492694 220.36,73.19 C218.404186,73.1746922 216.541406,74.0237392 215.27,75.51 C214.611233,76.2935337 214.102718,77.1919106 213.77,78.16 C213.401641,79.2518387 213.219106,80.3977494 213.23,81.55 Z" id="Shape" fill="#0066A1"></path>
            <path d="M255.74,98.14 C253.245242,98.1804677 250.767294,97.7249876 248.45,96.8 C246.422236,95.9691353 244.584906,94.7340414 243.05,93.17 C241.58974,91.6473073 240.459493,89.839594 239.73,87.86 C238.223274,83.7848114 238.223274,79.3051886 239.73,75.23 C240.459682,73.2534584 241.589989,71.4490526 243.05,69.93 C244.58338,68.356672 246.420577,67.1114611 248.45,66.27 C250.761,65.3204769 253.241957,64.854234 255.74,64.9 C258.228696,64.849765 260.70076,65.3162566 263,66.27 C265.017652,67.1169464 266.843988,68.3617118 268.37,69.93 C269.832535,71.4527706 270.972038,73.2555656 271.72,75.23 C272.496572,77.2461293 272.889976,79.3895043 272.88,81.55 C272.890304,83.7045594 272.507365,85.8429155 271.75,87.86 C271.020507,89.839594 269.89026,91.6473073 268.43,93.17 C266.889967,94.7418382 265.04116,95.9777812 263,96.8 C260.692644,97.7231296 258.224868,98.1786145 255.74,98.14 Z M248.6,81.55 C248.490225,83.7514284 249.2031,85.9150049 250.6,87.62 C251.876113,89.113564 253.756017,89.9543807 255.72,89.91 C256.691477,89.9182694 257.652199,89.7062951 258.53,89.29 C259.381958,88.8868088 260.138632,88.3073737 260.75,87.59 C261.41079,86.8041367 261.91946,85.9020944 262.25,84.93 C262.622503,83.8423795 262.808457,82.699611 262.8,81.55 C262.916592,79.3476564 262.202925,77.181679 260.8,75.48 C259.546084,73.9911986 257.68607,73.1494138 255.74,73.19 C253.783009,73.169152 251.917996,74.0192171 250.65,75.51 C249.991233,76.2935337 249.482718,77.1919106 249.15,78.16 C248.778243,79.2512574 248.592326,80.397183 248.6,81.55 Z" id="Shape" fill="#0066A1"></path>
            <path d="M289.17,98.14 C287.080678,98.1609616 285.011043,97.73476 283.1,96.89 C281.27071,96.0759854 279.637303,94.8790632 278.31,93.38 C276.942725,91.8353389 275.877608,90.0477073 275.17,88.11 C274.386483,85.9912653 273.990182,83.7489465 274,81.49 C273.972192,79.2731676 274.310056,77.0669163 275,74.96 C275.652403,73.024014 276.670883,71.2314898 278,69.68 C279.235449,68.2163081 280.760867,67.0245752 282.48,66.18 C284.253734,65.3133865 286.206038,64.8749743 288.18,64.9 C290.309001,64.8679272 292.406828,65.4139842 294.25,66.48 C296.010638,67.4903768 297.457353,68.9682414 298.43,70.75 L298.43,53 L308.19,53 L308.19,86.55 C308.12896,87.2484689 308.28994,87.948384 308.65,88.55 C309.068382,88.9936526 309.650197,89.2466156 310.26,89.25 L310.26,97.49 C309.499087,97.6713366 308.727583,97.8049305 307.95,97.89 C307.283333,97.95 306.673333,97.98 306.12,97.98 C304.680105,98.0664142 303.246775,97.7254764 302,97 C300.951086,96.3072104 300.27689,95.1724987 300.17,93.92 L300,92.22 C298.943962,94.134258 297.338131,95.6878387 295.39,96.68 C293.461754,97.652955 291.329767,98.1533893 289.17,98.14 Z M291.79,89.91 C293.168067,89.896777 294.512591,89.4833447 295.66,88.72 C296.898927,87.9228961 297.884276,86.7883568 298.5,85.45 L298.5,78.74 C297.90779,77.1446462 296.865721,75.7552204 295.5,74.74 C294.302168,73.7582376 292.808495,73.2086789 291.26,73.18 C290.253721,73.1717826 289.26099,73.4122364 288.37,73.88 C287.494612,74.3476508 286.717195,74.9790895 286.08,75.74 C285.418672,76.5366848 284.910146,77.4486416 284.58,78.43 C284.231935,79.4711668 284.056288,80.5622004 284.06,81.66 C284.052941,82.7827043 284.249451,83.8973905 284.64,84.95 C284.998418,85.9195666 285.53801,86.8120988 286.23,87.58 C286.908599,88.3190026 287.741677,88.8994256 288.67,89.28 C289.655123,89.7038845 290.717585,89.9184201 291.79,89.91 Z" id="Shape" fill="#0066A1"></path>
            <path d="M0,18.41 L18,96.41 L64,96.41 L64,0.41 L0,18.41 Z M53.5,52.41 C51.5670034,52.41 50,50.8429966 50,48.91 C50,46.9770034 51.5670034,45.41 53.5,45.41 C55.4329966,45.41 57,46.9770034 57,48.91 C57,50.8429966 55.4329966,52.41 53.5,52.41 Z" id="Shape" fill="#76B72A"></path>
        </g>
    </g>
</svg>