<svg xmlns="http://www.w3.org/2000/svg" viewBox="0 0 1627.13 1611.38">
    <defs>
        <style>
            path {
                fill: white;
            }
        </style>
    </defs>
    <path
        d="M6341.1,7166.87a4.89,4.89,0,0,0,2.56-4.52c.24-5.74.69-11.48.7-17.22,0-13.34,1.12-26.63,2.14-39.9.95-12.48,2.34-24.94,3.89-37.38,2.26-18.14,5.11-36.18,8.43-54.14,3.09-16.68,6.59-33.27,10.76-49.72a117.54,117.54,0,0,1,6.06-17.75,1.36,1.36,0,0,1,2.44-.15c6.75,9.95,13.22,20.05,18,31.13a67.56,67.56,0,0,1,5.8,32.05c-.16,2.34-.43,4.68-.82,7-2.13,12.34-4.51,24.65-6.41,37-1.58,10.31-2.69,20.7-3.85,31.08-.95,8.56-1.66,17.14-2.47,25.72-.09,1-.21,2.08-.24,3.12-.64,19.06-2.11,38.09-1.46,57.17.4,12,.63,24,1.53,36,1,13.27,2.14,26.53,3.84,39.75,1.56,12.17,3.32,24.31,5.43,36.39q5.11,29.31,12.84,58.07a710.34,710.34,0,0,0,62.27,156A724,724,0,0,0,6582,7647.93c93.75,99.53,206.28,168.91,336.89,209.11a749.83,749.83,0,0,0,83.6,20.48c15.91,2.95,31.85,5.73,47.9,7.8,10.62,1.36,21.21,2.88,31.85,4.05,8.3.92,16.67,1.24,25,2.15,13,1.42,26.07,1.58,39.11,2.2a548.28,548.28,0,0,0,58.75-.2c1.82-.1,3.65-.28,5.48-.28,12,0,24-1.19,36-2.25q17.15-1.5,34.23-3.91,24-3.36,47.85-8.07a714.29,714.29,0,0,0,86.19-22.95c71.39-23.83,137.36-58.23,198.41-102.13a845.38,845.38,0,0,0,131-116.41,725.74,725.74,0,0,0,128.09-194.91,699.86,699.86,0,0,0,43.26-129.77q6.27-27.51,10.36-55.39c1.58-10.84,2.72-21.75,3.88-32.65,3.68-34.65,3.51-69.36,2.5-104.1-1.12-9.86-1.09-19.81-2.4-29.66-.89-6.73-1.3-13.52-2.14-20.25-1-8.29-2.1-16.58-3.48-24.81-2.9-17.24-6.27-34.39-10.3-51.42a698.28,698.28,0,0,0-38.36-115.78,717.57,717.57,0,0,0-167.88-239.58q-126.91-119.83-292.46-175.73a753.39,753.39,0,0,0-91.44-24.49c-16.63-3.39-33.35-6.23-50.14-8.66-10.84-1.57-21.77-2.6-32.67-3.74-8.83-.92-17.68-1.64-26.52-2.45-.78-.07-1.56-.14-2.34-.19-25.57-1.34-51.15-2.26-76.76-1.75a50.75,50.75,0,0,0-10.79,1.76c-2.79.66-5.55,1.46-8.36,2a10.67,10.67,0,0,1-3.86-.11,7,7,0,0,1-5.61-4.92,26.49,26.49,0,0,1-1.44-10q.45-7.43,1-14.85a16.11,16.11,0,0,1,.46-3.1c1.42-5.43,4.62-9.26,10.1-11a28.24,28.24,0,0,1,8.44-1.61c2.35,0,4.7-.11,7-.09,10.19.1,20.38.07,30.56.39,12.53.39,25.06.92,37.57,1.71s25,1.8,37.48,3c11.16,1.1,22.3,2.56,33.43,4,9.06,1.15,18.13,2.28,27.15,3.75,12.36,2,24.71,4.14,37,6.58q34.93,6.93,69.25,16.61c81.56,23.08,157.74,57.7,227.7,105.74a758.58,758.58,0,0,1,129.17,112.44c40.27,43.81,75.27,91.54,106,142.44q21.27,35.22,39.66,72a562.15,562.15,0,0,1,41.85,114.48q6.38,25.47,10.53,51.37c2.23,13.91,4.08,27.88,5.45,41.92.74,7.56,1.1,15.1,1.33,22.67.09,3.12.05,6.29,1.76,9.11v122.26a8.89,8.89,0,0,0-1.53,5.17c-.16,3.91-.26,7.83-.39,11.74s-.1,7.84-.44,11.74c-.69,7.79-1.69,15.56-2.36,23.36-1.18,13.79-3.21,27.47-5.37,41.12q-4.22,26.67-10.7,52.9c-9.35,37.85-22,74.54-39,109.65a933.41,933.41,0,0,1-85.48,142.93A803,803,0,0,1,7735,7711.23a745.46,745.46,0,0,1-146.72,111.63c-59.68,34.66-123,60.55-189.52,78.82a922.83,922.83,0,0,1-138.12,26.88c-5.18.61-10.36,1.24-15.55,1.79-8,.85-16.07,1.89-24.14,2.42-12,.79-23.93,2.07-36,2.12a28,28,0,0,0-4.68.36,26.92,26.92,0,0,0-3.69,1.2h-65.84a9,9,0,0,0-4.45-1.33c-2.87-.17-5.74-.4-8.61-.41-10.73-.06-21.36-1.47-32.05-2.15-7.54-.47-15.05-1.59-22.56-2.52-9.58-1.18-19.19-2.22-28.72-3.75-15.72-2.51-31.37-5.39-46.93-8.76a760,760,0,0,1-105.08-30.79c-73.46-27.44-141-65.58-202.91-113.56a905.13,905.13,0,0,1-171.3-174.48,739.87,739.87,0,0,1-86.61-148.53,685.39,685.39,0,0,1-40.14-122.57c-3.32-14.78-6.14-29.64-8.65-44.56-1.38-8.24-2.41-16.53-3.43-24.82-.82-6.73-1.38-13.5-2.07-20.25-1.47-14.29-2.47-28.61-2.82-43-.17-6.78-.54-13.57-.81-20.35a6,6,0,0,0-2.53-4.64Z"
        transform="translate(-6341.1 -6325.07)" />
    <path
        d="M6778.26,7076c-.52-.38-.86-.49-.89-.66a164,164,0,0,0-5.73-21.13c-1.56-4.71-3-9.47-4.38-14.22a64.59,64.59,0,0,1-2.78-20.86c.13-3.92.12-7.84.17-11.75a23.61,23.61,0,0,0-1.75-9.18c-2.33-5.82-6.78-9.13-12.81-10.33a7.31,7.31,0,0,0-3.81.41,48.59,48.59,0,0,0-5.56,2.85q-12,6.57-24,13.17c-1.84,1-3.72,1.91-5.57,2.88a13.27,13.27,0,0,1-5.29,1.28,9,9,0,0,1-7.75-2.94c-1.22-1.36-2.34-2.8-3.51-4.2-2.17-2.6-4.36-5.19-6.5-7.81a7.79,7.79,0,0,1-.72-1.65,12.91,12.91,0,0,1,2.55-1.5,115.14,115.14,0,0,1,25.27-5.09c9.12-.73,18.23-1.5,27.37-1.56a12.93,12.93,0,0,0,8.65-3c2-1.68,4.27-3,6.3-4.64a18.16,18.16,0,0,0,3.21-3.4,6.12,6.12,0,0,0,.56-6,5.2,5.2,0,0,0-.74-1.37c-4.81-6.31-7.81-7.73-15.42-4.77a117.3,117.3,0,0,1-18.61,6q-5,1-10,1.91c-3.33.57-6.7.82-10,2a5,5,0,0,1-6.22-1.92c-1.2-1.8-2.78-1.95-4.79-1.5a82.85,82.85,0,0,0-16.33,5.37c-7.79,3.57-14.23,8.77-18.55,16.26-4,6.88-4.78,6-10.2,2.74-7-4.12-14.42-4.15-22-2.92-5.66.92-11.31,2-16.94,3.09a25.57,25.57,0,0,1-11.64-.14c-1-.26-2-.38-3.09-.54a10.28,10.28,0,0,0-6.8,1.19c-1.59.9-3.22,1.74-4.83,2.59a38.38,38.38,0,0,1-4.18,2.15c-4.34,1.63-6.56.08-7.07-4.31a59,59,0,0,1,0-7,2.82,2.82,0,0,0-2.91-3c-1.3-.11-2.61-.17-3.91-.18q-14.12-.09-28.21-.13c-1.05,0-2.09,0-3.14.1a8.41,8.41,0,0,0-5.66,2.3c-.92.92-2,1.72-3,2.59-.1.78-.2,1.54-.29,2.31A6.43,6.43,0,0,1,6524,6994a25,25,0,0,1-9.93,4.48c-16.52,3.21-30.82-3.49-38.42-16.36-1.2-2-2.2-4.15-3.42-6.16-1.77-2.89-3.57-5.77-5.51-8.55a21.63,21.63,0,0,0-8.23-7.09c-.7-.34-1.41-.69-2.1-1.05a28,28,0,0,1-14.39-17.74c-1.24-4.25-2.16-8.61-3-13-4.94-26.43-11-52.61-16.93-78.83-3.5-15.52-7-31-10.61-46.55a61,61,0,0,1-1.24-17.91c.6-9.38,5.19-16.24,13.53-20.55a48.29,48.29,0,0,1,16.44-4.86c6.48-.8,13-1.29,19.51-1.69,11.47-.71,22.92-1.55,34.35-2.75,5.71-.6,11.43-1.16,17.14-1.75a460.62,460.62,0,0,0,67.72-12.29q29.58-7.6,59.72-12.65c13.65-2.27,27.36-4,41.14-5.42,14.84-1.5,29.73-1.57,44.59-2.38a56.48,56.48,0,0,0,13.9-2.1c15-4.68,25-16.95,26.48-32.6a86.88,86.88,0,0,0-.05-14.87,16.29,16.29,0,0,0-2-7.49c-1.17-1.9-1.18-3.93-1.17-6,.05-8.88.13-17.76,0-26.63a221.54,221.54,0,0,0-2.59-28.06c-1.71-12.15-3.55-24.27-5.39-36.4-1.17-7.74-2.51-15.46-3.65-23.2-1-6.71-1.71-13.46-2.69-20.18-1.09-7.51-1.38-15.07-1.79-22.63a286.45,286.45,0,0,1,.52-32.89,38.81,38.81,0,0,1,.39-3.89,123.74,123.74,0,0,0,0-37.45q-1.69-12-3.2-24.07c-.35-2.84-.46-5.72-.53-8.59a186.63,186.63,0,0,1,1.67-32.82,61.94,61.94,0,0,1,3.05-12.13,26.2,26.2,0,0,1,14.58-15.53,68.29,68.29,0,0,1,18.91-4.75c8.3-1.08,16.66-1.29,25-1.95,12.77-1,25.56-1.39,38.35-1.55a334.78,334.78,0,0,1,36.78,1.37c24,2.34,47.24,8.35,70.24,15.35,7,2.13,13.87,4.6,20.75,7,3.44,1.22,6.78,2.72,10.17,4.08a3,3,0,0,0,3.39-1.26c.61-1.14,1.06-2.37,1.68-3.5a32.59,32.59,0,0,1,2.42-4,3,3,0,0,1,4.17-.62c.21.15.43.28.63.45,9.47,8,20.21,13.86,31.35,19.11,4.25,2,8.47,4.08,12.74,6,11.51,5.23,16.76,14.39,16.95,26.75a77.87,77.87,0,0,1-.73,14.07c-.17,1-.27,2.07-.35,3.12-.69,9.37-1.33,18.75-2.08,28.12s-1.6,18.72-2.4,28.09c-.07.78-.16,1.56-.22,2.34-.69,9.63-1.33,19.27-2.08,28.9-.74,9.37-1.6,18.73-2.4,28.1-.11,1.3-.24,2.6-.33,3.9-.69,9.37-1.3,18.76-2.07,28.12-.73,8.85-1.67,17.68-2.44,26.52-.74,8.58-1.34,17.18-2.09,25.76-.37,4.16-.86,8.31-1.41,12.45a20.87,20.87,0,0,1-8.55,14.41c-1.88,1.4-3.94,2.56-5.93,3.8a11.85,11.85,0,0,0-6.08,11.09,69.84,69.84,0,0,0,.9,8.54c.42,2.57,1.19,5.08,1.78,7.62,1.42,6.12,2.62,12.25,1.88,18.6-.53,4.53.95,8.05,7.12,9.51a28.2,28.2,0,0,0,6.17.9c3.65,0,7.3-.2,10.95-.39,4.44-.23,8.86-.66,13.3-.76,26.64-.66,53.29-.64,79.92.2,14.62.47,29.21,1.49,43.82,2.25,2.6.14,5.22.23,7.82.38l19.55,1.16c2.35.14,4.7.25,7.05.38l20.33,1.19c1,.07,2.08.16,3.13.2,13.3.62,26.62,1.09,39.91,1.88,6.77.4,13.53,1.19,20.25,2.1a82.61,82.61,0,0,0,26.49-.16c12.63-2.34,23.17,1.74,31.72,11.13a55.19,55.19,0,0,1,4.81,6.17,54.21,54.21,0,0,1,7.41,16.33,44,44,0,0,1,1.49,6.88c.91,8.35,3.18,16.38,5.42,24.42,1.06,3.77,2.13,7.54,3.25,11.29a114.28,114.28,0,0,1,3.57,17.63c1.09,8.13-.1,16.15-1.83,24.09-1,4.59-2.23,9.13-3.25,13.71-.86,3.82-1.75,7.64-2.28,11.51-.74,5.42-1.46,10.87-.58,16.38.31,2-.9,3.51-2.57,4.49a3.52,3.52,0,0,1-2.2.51,27.32,27.32,0,0,1-4.5-1.33c-3.74-1.44-7.63-1.62-11.57-1.58a18.67,18.67,0,0,0-14.39,6.82,34,34,0,0,0-6.61,12.33c-.8,2.48-1.49,5-2.25,7.47-.21.7-1.44,1.11-1.92.65-1.49-1.44-3-2.88-4.45-4.36a74.69,74.69,0,0,0-10.75-9.1,50.59,50.59,0,0,0-16.91-8c-6.1-1.47-12.26-2.56-18.6-1.17-3.21.71-4.93,2.7-5.9,5.6a6.79,6.79,0,0,0-.31,1.54,80.34,80.34,0,0,0,.37,17.19,3.19,3.19,0,0,0,2,2.15c2.34.22,4.67.52,7,.52,15.41,0,30.82,0,46.24,0,6.26,0,12.53,0,18.8.05a66.07,66.07,0,0,1,7,.5,7.93,7.93,0,0,1,6.51,5,18.07,18.07,0,0,1,1.08,11.5,10.57,10.57,0,0,1-3.79,5.81c-3.59,3.12-16.13,9.3-21,10.13a104,104,0,0,1-11.65,1.41,357.32,357.32,0,0,1-39.95-.14c-7.55-.45-15.07-1.42-22.6-2.26-5.18-.57-10.36-1.26-15.53-2-10.08-1.41-20.14-3-30.22-4.3-12.68-1.7-25.34-3.44-38.15-4.05-10.44-.5-20.87-1.26-31.32-.89-14.35.51-28.71.88-43,2.35-8.05.82-16.13,1.34-24.18,2.11-6.76.65-13.5,1.46-20.24,2.21-7.26.82-14.52,1.67-21.79,2.47-13,1.41-26,2.67-38.88,4.58a19.92,19.92,0,0,0-7.36,2.51,12.59,12.59,0,0,0-6.51,10.13c-.14,1.55,0,3.13,0,4.69.09,9.14.27,18.28.25,27.42,0,9.41-1.16,18.77-2.16,28.11-1.63,15.33-2.79,30.68-3.36,46.07-.11,3.13.16,6.27.23,9.4,0,1,0,2.08-.05,3.12a1.89,1.89,0,0,1-2.3,1.5c-2.64-.9-4.24-2.63-4.23-5a61.5,61.5,0,0,1,.45-8.59c1.67-11.46,1.18-22.92.43-34.4-.26-3.91-.62-7.81-.91-11.71-.15-2.09-.13-4.19-.41-6.26-1.2-8.83-1.21-17.71-1.22-26.59,0-6.53.08-13.06,1.4-19.5.26-1.28.2-2.62.48-3.88.7-3.14-.42-5.47-2.62-7.72-7.25-7.44-17.42-5.83-23-2.09a7.3,7.3,0,0,0-3.57,6.58,28.53,28.53,0,0,0,.7,6.2,27.12,27.12,0,0,1,.56,10.1c-.95,8.85-1,17.73-1.31,26.61q-.84,22.69-1.76,45.4c-.27,6.79-.71,13.56-1,20.35a17.25,17.25,0,0,1-5,12,2.22,2.22,0,0,1-1.41.36c-.57,0-.86-.42-.89-1.06s-.12-1.56-.13-2.34c0-1.56,0-3.13,0-4.7,0-22.46,0-44.93,0-67.39,0-7.31.26-14.62.6-21.92a143.3,143.3,0,0,0-.76-18.77,23,23,0,0,0-1.57-6.05,7.33,7.33,0,0,0-7.14-5.13,26.65,26.65,0,0,0-9.25,1.35c-3.46,1.18-6.88,2.48-10.37,3.54-12.78,3.88-24.76,1.75-36.08-5a7.08,7.08,0,0,1-1.18-1,4,4,0,0,1-1.19-4.29,17.71,17.71,0,0,1,2-4.21,39.47,39.47,0,0,1,9.08-9.65c1.44-1.12,3-.35,3.24,1.64.14,1,.14,2.09.32,3.11a3.34,3.34,0,0,0,2.41,2.8c2,.6,4,1.16,6.05,1.61s4.1.78,6.17,1.09a9.3,9.3,0,0,0,3.1.17c5.69-1.16,11.45-.72,17.19-.92a35.31,35.31,0,0,0,10-1.49,15.38,15.38,0,0,0,10.47-10.74c2.41-8,1.81-16-.66-23.9a17.7,17.7,0,0,0-2.6-4.79,10.29,10.29,0,0,0-9.56-4.3,14.86,14.86,0,0,0-6.74,1.84c-1.35.79-2.78,1.49-4,2.4-6.59,4.75-14.12,6.63-22,7.17-5,.35-9.88.87-14.82,1.38-21.88,2.28-43.22,7.17-64.32,13.24-2,.58-4,1.24-5.94,2a17.56,17.56,0,0,0-10.4,10,31.85,31.85,0,0,0-1.65,5.21,3.86,3.86,0,0,0,.55,2.17,2.86,2.86,0,0,0,1.1,1.08c4.36,2.69,7.27,6.69,10,10.88,1.84,2.86,3.52,5.82,5.51,8.56a36.37,36.37,0,0,0,5.19,5.82,17.15,17.15,0,0,0,12.91,4.62,170.89,170.89,0,0,0,25.6-3.28q13-2.77,26.05-5.43c.37-.07.82.27,1.23.41-.26.43-.42,1-.8,1.27a58.87,58.87,0,0,1-21.26,9.63c-4.32,1-8.68,1.85-13.06,2.51a136.76,136.76,0,0,0-19.75,4.83,137.56,137.56,0,0,1-16.67,4.26,38.19,38.19,0,0,1-15.54-.07c-.25-.06-.51-.1-.76-.18-5.36-1.57-8.71.58-11.94,5.08a26,26,0,0,0-2.59,4.82,36.75,36.75,0,0,0-3.18,13.65c-.11,4.43.11,8.87.42,13.3.4,5.72,1.11,11.43,1.55,17.15a59.23,59.23,0,0,1,0,7.05c-.29,6.78-.69,13.56-1,20.34C6779.16,7065.45,6778.63,7070.62,6778.26,7076ZM7003,6858.36v.16c3.13-.18,6.26-.28,9.38-.56,8.84-.78,17.68-1.58,26.5-2.47,11.69-1.18,23.39-2.21,35-3.75q23.65-3.15,47.2-7.12c24.45-4.14,48.69-9.23,72.83-14.85,5.07-1.19,10.11-2.55,15.13-4a23.55,23.55,0,0,0,13.92-10.75,38.89,38.89,0,0,0,5.83-18.46,14.86,14.86,0,0,0-.31-3.88,4.74,4.74,0,0,0-3.58-3.75,11.56,11.56,0,0,0-3.09-.41q-3.14,0-6.26.29a40.63,40.63,0,0,1-14-1.05c-4.28-1.15-8.67-1.88-13-3a20.64,20.64,0,0,0-11.58-.13,29.52,29.52,0,0,1-8.53.88,39.48,39.48,0,0,1-13-2.32c-5.19-1.76-10.25-3.86-15.35-5.84-3.89-1.51-7.8-3-11.64-4.6-3.56-1.51-7-1.33-10.67-.28-9,2.59-17.88,5.75-26.63,9.16-10.94,4.26-21.81,8.72-32.81,12.81a162.66,162.66,0,0,1-42.53,10.05,48.35,48.35,0,0,0-6.13,1.18c-6.34,1.41-10.64,5.39-13.31,11.12a41.47,41.47,0,0,0-2.8,8.12c-1.77,7.62-3.35,15.29-4.92,22.95a22.77,22.77,0,0,0-.37,4.67,5.54,5.54,0,0,0,5.27,5.74C6996.71,6858.53,6999.85,6858.36,7003,6858.36Zm128.17.28v.09c-2.61,0-5.23-.1-7.83,0-10.17.47-20.34.53-30.47,1.87-11.64,1.54-23.35,2.49-35,3.87-11.14,1.32-22.26,2.83-33.38,4.32a130.87,130.87,0,0,0-22.16,4.73,33.7,33.7,0,0,0-9.88,4.63,16.71,16.71,0,0,0-7.34,13.22,76.56,76.56,0,0,0,.38,10.15c.34,3.63.93,7.25,1.52,10.85a43.13,43.13,0,0,0,1.5,6.87,7.94,7.94,0,0,0,6.86,5.65,14.4,14.4,0,0,0,3.88,0c2.07-.3,4.1-.81,6.14-1.23,3.57-.75,7.11-1.75,10.72-2.22,12.94-1.68,25.87-3.41,38.85-4.69,13.25-1.3,26.53-2.29,39.82-3.07s26.6-1.28,39.91-1.6c13.84-.33,27.68-.34,41.52-.39,8.09,0,16.17.39,24.25,1,11.46.85,22.94,1.07,34.37-.82a84.27,84.27,0,0,0,17.32-4.73c.49-.19,1-.41,1.43-.64a2.35,2.35,0,0,0,.83-3.32c-5.05-7-10.07-14-15.19-20.91a73.85,73.85,0,0,0-5.55-6.57,30.74,30.74,0,0,0-19.86-9.93c-5.45-.57-10.88-1.32-16.32-2-5.18-.62-10.35-1.28-15.54-1.82-8.05-.85-16.09-1.83-24.16-2.34C7148.91,6859.06,7140,6859,7131.15,6858.64Zm-398.28-86.27c-3.38.54-7.52,1.1-11.61,1.85a160.58,160.58,0,0,0-29.9,9.05c-9,3.54-17.85,7.32-26.77,11-11.58,4.77-23.28,9.19-35.5,12.1a46.12,46.12,0,0,0-12.31,4.93,53.11,53.11,0,0,0-14.67,12.78,110.55,110.55,0,0,0-12.11,19.14c-.12.23-.15.5-.25.74a1.53,1.53,0,0,0,1.44,2.17c2.33-.27,4.64-.63,7-.94,5.42-.74,10.82-1.77,16.27-2.14a228.51,228.51,0,0,1,35.2.14c11.43,1,22.86,2,34.22,3.71a43,43,0,0,0,9.35.24,6.51,6.51,0,0,0,6.1-6.9c0-2.34-.42-4.67-.59-7a3.94,3.94,0,0,1,3.38-4.52c4.12-.62,8.26-1.15,12.41-1.63,6-.69,11.94-1.16,17.88-2,4.64-.65,9.22-1.71,13.83-2.58a12.9,12.9,0,0,0,5.69-2.5,35.42,35.42,0,0,0,12.51-20.21,8.15,8.15,0,0,0-3.67-8.87,34.27,34.27,0,0,0-6.23-3.21c-2.16-.9-4.48-1.39-6.66-2.26a38.58,38.58,0,0,1-5.58-2.76,5.69,5.69,0,0,1-2.83-4.46c-.08-.78-.1-1.56-.13-2.34-.09-2.37-1-3.48-4.12-3.54C6734.67,6772.36,6734.15,6772.37,6732.87,6772.37Zm135-109h.08c0-3.13-.07-6.27,0-9.4a62,62,0,0,0-1.61-14.75,15.9,15.9,0,0,0-.81-2.18,2.15,2.15,0,0,0-2.57-1.2c-1.41.69-2.76,1.47-4.18,2.12a68.11,68.11,0,0,1-6.48,2.76c-4.88,1.62-8.82-.25-10.66-5.14a48.62,48.62,0,0,1-1.74-6.79,24.77,24.77,0,0,1-.26-3.12c-.06-.78-.14-1.56-.23-2.34-.12-1.06-.83-1.8-1.37-1.4s-1.37.95-1.52,1.56a58.44,58.44,0,0,0-1.93,9.17c-.41,4.66-.49,9.38-.46,14.07,0,5.74.31,11.48.49,17.22a37.15,37.15,0,0,1-4.95,20.26,34.47,34.47,0,0,0-3.73,8.59,18.1,18.1,0,0,0-.62,4.62,6.39,6.39,0,0,0,4.08,6.13,7.88,7.88,0,0,0,2.21.78c5.51.67,10.53,2.89,15.66,4.83,2.67,1,5.43,1.85,8.17,2.68a21.13,21.13,0,0,0,9.32.52c5.67-.83,9.6-3.82,11.21-9.5.15-.5.24-1,.37-1.52a4.85,4.85,0,0,0-.55-3.76c-.54-.9-1.17-1.73-1.77-2.59a33.85,33.85,0,0,1-6.14-19.09C6867.83,6671.76,6867.9,6667.58,6867.9,6663.4Zm-27.49,145.47a175.29,175.29,0,0,0,21,.65c6.53-.27,13-1.23,19-3.88a33.66,33.66,0,0,0,11.06-7.2,2.06,2.06,0,0,0-.4-2.75c-.23-.11-.45-.26-.69-.35a141.62,141.62,0,0,0-31.84-7.65c-14-1.53-26.94,1.44-38.29,10.15a25.45,25.45,0,0,0-2.3,2.1,2.34,2.34,0,0,0,.65,3.34,13,13,0,0,0,6.84,1.24c1.55-.17,3.1-.44,4.65-.52a10.31,10.31,0,0,1,8.49,3.19C6839.16,6807.75,6839.75,6808.26,6840.41,6808.87Zm107,100.11h.34c-.16,2.6-.39,5.2-.45,7.81a51.22,51.22,0,0,0,.18,7,8,8,0,0,0,6.65,6.79,23.39,23.39,0,0,0,9.32-.24,13.84,13.84,0,0,0,4.19-2,5.35,5.35,0,0,0,2.35-3.9,15.48,15.48,0,0,0,.19-3.11c-.34-4.41-.51-8.86-1.22-13.22a33.87,33.87,0,0,1-.19-9.32c.17-1.55.58-3.09.65-4.64a15.12,15.12,0,0,0-.38-3.85,6.63,6.63,0,0,0-4.5-5,14.28,14.28,0,0,0-7.71-.51c-5.5,1-8.73,4.49-9.27,10.06-.18,1.81-.13,3.65-.14,5.47C6947.39,6903.25,6947.4,6906.11,6947.4,6909Zm23.84-62.13h.11c-.07-1.29-.06-2.6-.21-3.89a5.17,5.17,0,0,0-5.43-4.57c-1,0-2.08.18-3.11.28-1.56.14-3.11.31-4.67.44-2.26.19-4.11-.43-5.23-2.58a3.2,3.2,0,0,0-1-1.15,2.29,2.29,0,0,0-1.43-.45,9,9,0,0,0-6.13,3.05,3.65,3.65,0,0,0-.89,3.63,88.92,88.92,0,0,0,4.9,10.62,12,12,0,0,0,11.09,6.11,23.13,23.13,0,0,0,3.12-.1c5.68-.77,8.43-3.27,8.89-9C6971.3,6848.41,6971.24,6847.63,6971.24,6846.85Z"
        transform="translate(-6341.1 -6325.07)" />
    <path
        d="M6936.7,7273.62v9.32q0,31,0,61.9c0,3.14-.07,6.28.16,9.4,1.31,17.74,1.06,35.5,1,53.26,0,11.49,0,23-.89,34.45-.32,4.43-.28,8.88-.5,13.31-.33,6.78-.74,13.56-1.12,20.34-.06,1-.14,2.08-.21,3.12-.69,11.21-1.29,22.42-2.11,33.62-.65,8.85-1.57,17.68-2.37,26.51q-1,10.53-1.92,21.06c-.86,9.36-1.69,18.72-2.62,28.07a43.6,43.6,0,0,0,.55,13.24,24.77,24.77,0,0,0,4.3,10c1.09,1.47,2.23,2.9,3.29,4.39a45.38,45.38,0,0,1,8.79,28.65,66.24,66.24,0,0,1-2.73,17,119.19,119.19,0,0,1-7.68,19.67,43.32,43.32,0,0,0-4.33,23.52c.41,5.46.28,11,.35,16.44a25.18,25.18,0,0,1-1.92,9.15,17,17,0,0,1-7.92,9.35,10.88,10.88,0,0,1-5.23,1.42,4.18,4.18,0,0,1-4-2.08c-1-1.83-1.74-3.79-2.72-5.62a23,23,0,0,0-2.2-3.2,2.17,2.17,0,0,0-3.35.35c-.36.69-.7,1.39-1,2.11-3.4,8.5-9.23,15.09-16.32,20.66-9.6,7.53-20.53,12.33-32.28,15.39a87.61,87.61,0,0,1-19.37,2.63,55.69,55.69,0,0,1-25.16-4.83,70.37,70.37,0,0,1-30.47-26.18,47.91,47.91,0,0,1-8.15-28.9,64.4,64.4,0,0,0-3.38-23.12c-1.46-4.46-3.06-8.87-4.52-13.34-1.3-4-2.7-7.91-3.67-12a79,79,0,0,1-1-30.34c1.33-8.77,2.88-17.51,4.4-26.25a145.85,145.85,0,0,0,2.4-26.47q-.26-26.64,1.05-53.26a343.26,343.26,0,0,0-.33-39.93,272.1,272.1,0,0,0-4.07-32.6,27.65,27.65,0,0,1,1.62-15.34c1-2.68,2.29-5.26,3.51-7.86s2.59-5.12,3.76-7.75a59.82,59.82,0,0,0,4.77-27.51,148.9,148.9,0,0,0-2.67-20.17c-.43-2.31-.8-4.64-1.45-6.89-1.78-6.17-1.43-12.4-.82-18.66q.69-7,1.18-14c2.66-37.84,1.48-75.71.66-113.57-.47-22,.23-43.87,1.13-65.78a241.17,241.17,0,0,1,3.2-31.93c.11-.62.81-1.13,1.33-1.84a8.64,8.64,0,0,1,.65,1.72c.58,5.45,1.33,10.89,1.62,16.36.82,15.13,1.08,30.27.47,45.42-.35,8.61-.48,17.23-.63,25.85-.05,3.13,0,6.27.26,9.39a11.24,11.24,0,0,0,7,9.67,27.76,27.76,0,0,0,4.4,1.65,109.17,109.17,0,0,0,14.56,2.95,2,2,0,0,0,2-2.52c-.47-1.76-1-3.52-1.49-5.27-1.67-5.77-3.14-11.57-4.28-17.48a119.86,119.86,0,0,1-1.8-22.6,45.75,45.75,0,0,1,.61-7,14.46,14.46,0,0,1,4.32-8.17,13,13,0,0,1,12.29-3.41,6.29,6.29,0,0,1,4.27,5.13,36,36,0,0,1-.22,6.22c-.23,2.07-.72,4.11-1.11,6.16a77.37,77.37,0,0,0-.69,22.63c.61,6,.76,12,.78,18a68.61,68.61,0,0,1-1.15,12.46A42.44,42.44,0,0,1,6807,7261c-1.23,1.34-2.48,2.68-3.57,4.13a4.77,4.77,0,0,0,.05,5.18c.8,1,1.68,2,2.52,3,7.82,9.38,10.45,20.21,9.06,32.19a207,207,0,0,1-4.47,23.05c-3.48,14.88-4.29,29.93-3.54,45.13q.34,7,.81,14.07c.28,4.17.74,8.33,1,12.5.66,12.51,2,25,1.86,37.54,0,1.57.06,3.15-.11,4.7a133.31,133.31,0,0,0,.08,25,96.08,96.08,0,0,1,.31,10.18c-.07,3.12-.39,6.24-.76,9.35-.47,3.88-1.24,7.73-1.64,11.63-.89,8.76,1.42,16.54,7.49,23.07a34.48,34.48,0,0,0,2.77,2.77,13.33,13.33,0,0,1,4.6,11.17c-.14,3.65-.27,7.31-.69,10.93a61.24,61.24,0,0,0,.83,19.48,25.32,25.32,0,0,0,3.14,8.78c.34.54.74.87,1.29.57a1.93,1.93,0,0,0,.92-1.05,9.43,9.43,0,0,0,.25-2.32c0-2.35,0-4.7,0-7.05q0-49.36,0-98.73c0-2.34.19-4.68.34-7,0-.15.41-.33.65-.37a.85.85,0,0,1,.69.12,7.75,7.75,0,0,1,1.53,1.72A52.42,52.42,0,0,1,6838,7477a98.3,98.3,0,0,1,.69,23.43,167.9,167.9,0,0,0,0,24.26,282,282,0,0,1,.4,32.89c-.51,10.45-2.13,20.76-5.88,30.63a77.91,77.91,0,0,0-2.47,7.43,14.52,14.52,0,0,0-.51,4.63c.47,6.87,5.6,10.17,11.69,10.05a7.81,7.81,0,0,0,6.86-4.56,18.28,18.28,0,0,0,2.07-7.5c.09-1.83.16-3.65.23-5.48,1.34-35.24,1.38-70.5,1.55-105.76.06-11.49,0-23,.14-34.47a76.76,76.76,0,0,1,.55-8.58,37,37,0,0,1,8.84-19.73c.51-.6,1-1.19,1.54-1.78a47.67,47.67,0,0,0,11.23-24.56c1.71-10.59-.64-20.2-6.14-29.2a21.85,21.85,0,0,0-2.26-3.19c-3.62-4-4.3-8.84-3.9-13.9a129,129,0,0,1,2.77-19.36,226.34,226.34,0,0,1,11-35.08c1.29-3.13,2.79-6.19,4.31-9.22a30.88,30.88,0,0,1,8-10.52,27.21,27.21,0,0,0,8.43-13c2.43-7.33,3.24-14.72,1.22-22.34a28.26,28.26,0,0,0-5.54-11.1c-1-1.2-2.06-2.36-3-3.6a3.92,3.92,0,0,1-.68-3.69c.16-.5.39-1,.59-1.45,3.3-7.86,4.18-16.09,4-24.54-.16-7.61-1.4-15.07-2.67-22.53-1.33-7.72-2.72-15.43-2.8-23.29a98.07,98.07,0,0,1,1.25-17.94,146.85,146.85,0,0,0,2-17.1c.93-17.48,1.48-34.95.87-52.47a438.31,438.31,0,0,1,.41-47c.58-8.08.93-16.16,2.1-24.18a113.39,113.39,0,0,1,3.11-16.13c.52-1.73,1.46-2.54,2.64-2.3a4,4,0,0,1,3.18,3,17.12,17.12,0,0,1,.21,3.11,18.62,18.62,0,0,1-.55,3.87c-2.13,7.86-.9,15.54,1.2,23.17.9,3.27,1.93,6.5,2.94,9.74,1.1,3.49,2.25,6.95,3.37,10.43a54.08,54.08,0,0,1,1.73,24.79c-1.35,9-2.34,18.11-3.12,27.22a556.11,556.11,0,0,0-2.2,60.25c.47,19.83.47,39.7,2.07,59.5.22,2.6.19,5.22.32,7.82.4,8.09.89,16.17,1.22,24.26.26,6.26.35,12.53.48,18.79.05,2.35,0,4.7,0,7.05a25,25,0,0,0,5.72,16.69,27.1,27.1,0,0,1,5.94,14.23,20.42,20.42,0,0,1-1,9.27,13.92,13.92,0,0,1-7,8.06,64.63,64.63,0,0,1-6.44,2.81,6.49,6.49,0,0,0-4.15,5.29,15.4,15.4,0,0,0-.19,4.64,43.72,43.72,0,0,0,1.54,6.87c5.1,16.67,6.53,33.77,6.14,51.09a285.85,285.85,0,0,1-3.34,38.2c-1.55,9.8-2.88,19.63-4.16,29.46a133,133,0,0,0,0,33.59c.31,2.58.41,5.19.53,7.79.07,1.57-.05,3.14,0,4.7.07,5.12,3.51,6.49,7.12,6.46a9.12,9.12,0,0,0,8.9-6.44,59.22,59.22,0,0,0,1.67-7.63,20.28,20.28,0,0,0,.21-3.12c.63-18,1.22-36,1.92-54,.5-12.78,1-25.57,1.77-38.34.59-10.16,1.5-20.31,2.32-30.46a63,63,0,0,0-.17-11.73,175.73,175.73,0,0,1,0-34.4,196.27,196.27,0,0,1,5.42-31.59,31.26,31.26,0,0,1,.95-3A27.23,27.23,0,0,1,6936.7,7273.62Z"
        transform="translate(-6341.1 -6325.07)" />
    <path
        d="M7047,7322.35c0-19.33,0-38.66,0-58,0-4.69-.36-9.39-.5-14.08a59,59,0,0,1,.06-6.24,6.31,6.31,0,0,1,4.05-5.34,13.78,13.78,0,0,1,2.95-1c4.34-.92,8.68-1.9,13.05-2.6a30.6,30.6,0,0,1,7-.24c4.6.33,8.62,2,11.48,5.84.94,1.26,1.82,2.57,2.87,3.72a15.29,15.29,0,0,0,3,2.54,6.09,6.09,0,0,0,6,.73c2.15-.92,4.33-1.83,6.43-2.87a130.26,130.26,0,0,1,15.14-6.36,80.4,80.4,0,0,1,37.07-3.86,63.82,63.82,0,0,1,18.66,5.65,85.81,85.81,0,0,1,18.39,11.85,71.26,71.26,0,0,0,6.23,4.72,8.67,8.67,0,0,0,9.64.12,68.63,68.63,0,0,0,6.42-4.45,106.11,106.11,0,0,1,18-11.11,80.67,80.67,0,0,1,30.11-7.95c9.21-.64,18.22.91,27,3.54a93.73,93.73,0,0,1,15.92,6.52c17.18,8.77,27.51,22.78,31.74,41.45,1.91,8.43,2.5,17,2.93,25.64.09,1.83.06,3.66.05,5.49q-.08,19.18-.17,38.39c0,2.61-.15,5.22-.23,7.83a218.52,218.52,0,0,0,.24,24.28,108.31,108.31,0,0,1,.26,11,34.07,34.07,0,0,1-.86,6.17c-1.11,5.46-4.74,8.69-9.87,10.06a40.21,40.21,0,0,1-21.68.19c-4.85-1.38-8.22-4.38-9.32-9.56a37.71,37.71,0,0,1-1-8.53c.1-5.74,0-11.5.23-17.24.83-21.68.58-43.35-.31-65a64.09,64.09,0,0,0-3.26-18.43,46,46,0,0,0-3.18-7.13,27.28,27.28,0,0,0-15.31-12.74,36.49,36.49,0,0,0-10.7-2.26c-7.05-.27-14.07-.43-21,1.56-10.9,3.15-19,9.65-24,19.85a54.37,54.37,0,0,0-5.08,18.79,409.77,409.77,0,0,0-1.5,43c.09,12.54-.06,25.08,1.15,37.59a31.27,31.27,0,0,1-.87,10.1c-1.38,6-5.09,9.43-11.32,10.21a46.62,46.62,0,0,1-6.25.39c-3.39,0-6.79-.12-10.17-.39a26.55,26.55,0,0,1-5.34-1.11c-5.41-1.59-8.06-5.54-8.72-10.89a56.67,56.67,0,0,1-.21-7.82c.24-11,.6-21.94.78-32.91.08-5.22-.16-10.44-.25-15.66-.17-10.19-.33-20.37-.54-30.56a71.6,71.6,0,0,0-3.05-19.28,43.13,43.13,0,0,0-3-7.22,26.87,26.87,0,0,0-15.63-13.46,35.71,35.71,0,0,0-10.69-2.24c-7.06-.24-14.08-.4-21,1.52-12.47,3.46-21.08,11.07-25.67,23.18a54.11,54.11,0,0,0-3.27,14.46c-1.38,15.37-1.36,30.78-1.34,46.19,0,11.23,0,22.47,1.13,33.67a34.85,34.85,0,0,1-.75,11.67c-1.38,5.81-5.14,9.07-10.67,10.14a55.31,55.31,0,0,1-20.28.08,12.26,12.26,0,0,1-10.4-9.43,23.3,23.3,0,0,1-.74-4.62c-.14-2.6-.13-5.22-.12-7.83q.16-34.87.35-69.75Z"
        transform="translate(-6341.1 -6325.07)" />
    <path
        d="M7390,7292.69q0-52.08,0-104.15c0-2.61-.05-5.24.21-7.83a30.31,30.31,0,0,1,1.34-6.08c1.33-4.12,4.48-6.26,8.53-7.23a12.51,12.51,0,0,1,3.11-.33c5.22.06,10.45,0,15.65.36a27.32,27.32,0,0,1,7.56,1.84,11.41,11.41,0,0,1,6.87,7.08,21.65,21.65,0,0,1,1.51,7.64c0,3.91,0,7.83,0,11.74q0,23.51,0,47c0,7.34.39,8,7.27,5a217.93,217.93,0,0,1,24.11-9.2,85.85,85.85,0,0,1,27.75-4.06,73.88,73.88,0,0,1,13.18,1.64,106.22,106.22,0,0,1,25.77,9,77.88,77.88,0,0,1,38.15,41.84,108.72,108.72,0,0,1,6.71,26.48,105.56,105.56,0,0,1,1.16,16.38,92.78,92.78,0,0,1-3.89,24.64,73.69,73.69,0,0,1-11.95,23.63c-13.29,17.29-30.21,29.39-51.39,35.15a80.1,80.1,0,0,1-34.14,1.55,103.7,103.7,0,0,1-16-3.81c-5.22-1.72-10.33-3.66-14.88-6.85a22.69,22.69,0,0,0-3.39-1.94,7.9,7.9,0,0,0-9.91,2.06,50.86,50.86,0,0,0-4.36,6.47,9.93,9.93,0,0,1-8.32,5.06c-1.29.11-2.6.16-3.91.18a72.7,72.7,0,0,1-20.81-3.21c-3.77-1.07-5.76-3.55-6-7.31-.15-2.34-.05-4.7,0-7,.05-3.66.22-7.31.22-11q0-47.39,0-94.76Zm94.68,86.48a84.75,84.75,0,0,0,9.32-.92c16.71-3.42,28.93-12.78,36.07-28.31,7.48-16.29,7.56-32.91.54-49.31-10.65-24.89-37.33-35.63-61.61-27.89-15.38,4.9-26.07,15-32.27,29.72a57.84,57.84,0,0,0-3.59,32.2C7437.58,7362,7460.16,7379.63,7484.72,7379.17Z"
        transform="translate(-6341.1 -6325.07)" />
    <path
        d="M7601,7324.05c0-37.72,22.76-68.18,54.5-81.74a96.54,96.54,0,0,1,34.89-8.05c11-.38,21.91.27,32.57,3.4,13,3.81,24.59,10.05,34.35,19.56,2.24,2.19,4.68,4.17,6.94,6.34a51.68,51.68,0,0,1,4.81,5.12,5.53,5.53,0,0,1-.47,7.79c-4.22,3.89-8.53,7.68-12.86,11.46a19.28,19.28,0,0,1-3.22,2.2,14.61,14.61,0,0,1-14.24.41,31.93,31.93,0,0,1-6.41-4.45c-2.41-2-4.78-4.08-7.33-5.89a55.53,55.53,0,0,0-20.6-9.11,45.9,45.9,0,0,0-31.87,4.52,47.22,47.22,0,0,0-23.52,27.17c-4.9,14.24-5.33,28.68-.62,43.07,5.58,17.09,17.49,27.38,34.82,31.57,13.38,3.23,25.93.58,37.79-5.86a93.54,93.54,0,0,0,9.7-6.59c1.69-1.21,3.23-2.64,4.87-3.93a20.45,20.45,0,0,1,7-3.45,10.12,10.12,0,0,1,6.16.09,19.78,19.78,0,0,1,6.82,3.74q6.27,5.31,12.49,10.68a10.36,10.36,0,0,1,1.52,1.78,4.92,4.92,0,0,1,.6,5.17,15.46,15.46,0,0,1-3.61,5.07c-4.35,4.14-8.58,8.43-13.13,12.34a78.47,78.47,0,0,1-38.5,18.05,90.19,90.19,0,0,1-25.73.35,129,129,0,0,1-20.74-3.92c-14.27-4.06-27.23-10.62-38.29-20.6-13.61-12.27-22.2-27.52-26.33-45.32A99,99,0,0,1,7601,7324.05Z"
        transform="translate(-6341.1 -6325.07)" />
    <path
        d="M6697.94,6542.68a62.26,62.26,0,0,1-.87,14,37.49,37.49,0,0,1-13.92,22.88c-2.24,1.79-4.64,3.38-7,5a490.42,490.42,0,0,0-46,35.26,341.9,341.9,0,0,0-44.39,46.27q-1.46,1.85-2.94,3.67a81.55,81.55,0,0,1-44.18,28,127.16,127.16,0,0,1-19.22,3.49c-6,.58-11.89,1.67-17.92,1.2a1.32,1.32,0,0,1-1-1.69,18.38,18.38,0,0,1,1.16-2c1.07-1.48,2.2-2.92,3.32-4.36a792.61,792.61,0,0,1,142.37-141.5c10.75-8.28,21.81-16.15,32.74-24.2a31.78,31.78,0,0,1,9.59-5.2,5.46,5.46,0,0,1,6.51,3,22.07,22.07,0,0,1,1.72,7.6C6698,6536.94,6697.94,6539.81,6697.94,6542.68Z"
        transform="translate(-6341.1 -6325.07)" />
    <path
        d="M6976.76,7414.5c0,15.93.14,31.86,0,47.79q-.66,63.47-1.56,126.91c-.06,5-.53,9.91-.85,14.86-.71,11.06-5.59,19.95-14.19,26.84a42.17,42.17,0,0,1-3.89,2.57c-.55.35-1.67-.39-1.65-1.08,0-1.57,0-3.14.17-4.69,1.21-12.74,2.07-25.5,2.88-38.27.7-10.94,1.59-21.87,2.39-32.8.06-.78.15-1.56.2-2.34q1-18.78,2.07-37.54,1.2-21.12,2.45-42.23c.05-.78.12-1.56.15-2.34q1-23.09,2-46.18.49-11.73,1-23.47c.1-2.35.24-4.7.28-7.05.65-32.37,2.09-64.73,2.24-97.12.1-22.72.58-45.43.92-68.15a24.1,24.1,0,0,1,.38-4.66c.12-.59,1-1.18,1.61-1.45a2.43,2.43,0,0,1,2.71,1,6.38,6.38,0,0,1,.73,2.18q.18,5.86.18,11.75,0,87.75,0,175.5Z"
        transform="translate(-6341.1 -6325.07)" />
    <path
        d="M6800.57,7072.81c0-10.69,0-21.38,0-32.06a44.48,44.48,0,0,1,.52-5.39c.07-.54.61-.73,1.22-.52a.94.94,0,0,1,.52.41,4.64,4.64,0,0,1,.48,1.46c.1,1.56.16,3.12.16,4.68q0,32.07,0,64.12c0,2.06.35,4.17-.56,6.16a.93.93,0,0,1-1.26.54c-.2-.06-.49-.24-.51-.41a32.48,32.48,0,0,1-.55-4.59C6800.55,7095.74,6800.57,7084.27,6800.57,7072.81Z"
        transform="translate(-6341.1 -6325.07)" />
    <path
        d="M6836,7290.34c-1-2.09-.45-4.12-.45-6.09q0-19.47.18-38.95c0-.26.66-.56,1.07-.73.12,0,.48.24.59.45a31.08,31.08,0,0,1,3.28,10.34,62.56,62.56,0,0,1-.3,19.41c-.79,4.59-2,9.12-3.14,13.65A7.62,7.62,0,0,1,6836,7290.34Z"
        transform="translate(-6341.1 -6325.07)" /></svg>